<svg width="38" height="30" viewBox="0 0 38 30" fill="none" xmlns="http://www.w3.org/2000/svg">
<path d="M37.7483 20.9604C37.7483 25.9529 29.2981 30.0001 18.8742 30.0001C8.45026 30.0001 0 25.9529 0 20.9604C0 15.9679 8.45026 11.9207 18.8742 11.9207C29.2981 11.9207 37.7483 15.9679 37.7483 20.9604Z" fill="url(#paint0_linear_40_440)"/>
<path fill-rule="evenodd" clip-rule="evenodd" d="M31.8338 26.5363C35.171 24.9379 36.8496 22.9065 36.8496 20.9604C36.8496 19.0143 35.171 16.9828 31.8338 15.3845C28.5636 13.8182 23.9828 12.8246 18.8742 12.8246C13.7656 12.8246 9.18471 13.8182 5.91453 15.3845C2.57732 16.9828 0.89877 19.0143 0.89877 20.9604C0.89877 22.9065 2.57732 24.9379 5.91453 26.5363C9.18471 28.1025 13.7656 29.0962 18.8742 29.0962C23.9828 29.0962 28.5636 28.1025 31.8338 26.5363ZM18.8742 30.0001C29.2981 30.0001 37.7483 25.9529 37.7483 20.9604C37.7483 15.9679 29.2981 11.9207 18.8742 11.9207C8.45026 11.9207 0 15.9679 0 20.9604C0 25.9529 8.45026 30.0001 18.8742 30.0001Z" fill="url(#paint1_linear_40_440)"/>
<path d="M37.7483 16.9868C37.7483 21.9793 29.2981 26.0265 18.8742 26.0265C8.45026 26.0265 0 21.9793 0 16.9868C0 11.9942 8.45026 7.94702 18.8742 7.94702C29.2981 7.94702 37.7483 11.9942 37.7483 16.9868Z" fill="url(#paint2_linear_40_440)"/>
<path fill-rule="evenodd" clip-rule="evenodd" d="M31.8338 22.5627C35.171 20.9643 36.8496 18.9329 36.8496 16.9868C36.8496 15.0407 35.171 13.0092 31.8338 11.4109C28.5636 9.84462 23.9828 8.85099 18.8742 8.85099C13.7656 8.85099 9.18471 9.84462 5.91453 11.4109C2.57732 13.0092 0.89877 15.0407 0.89877 16.9868C0.89877 18.9329 2.57732 20.9643 5.91453 22.5627C9.18471 24.1289 13.7656 25.1225 18.8742 25.1225C23.9828 25.1225 28.5636 24.1289 31.8338 22.5627ZM18.8742 26.0265C29.2981 26.0265 37.7483 21.9793 37.7483 16.9868C37.7483 11.9942 29.2981 7.94702 18.8742 7.94702C8.45026 7.94702 0 11.9942 0 16.9868C0 21.9793 8.45026 26.0265 18.8742 26.0265Z" fill="url(#paint3_linear_40_440)"/>
<path d="M37.7483 13.0134C37.7483 18.0059 29.2981 22.0531 18.8742 22.0531C8.45026 22.0531 0 18.0059 0 13.0134C0 8.02086 8.45026 3.97363 18.8742 3.97363C29.2981 3.97363 37.7483 8.02086 37.7483 13.0134Z" fill="url(#paint4_linear_40_440)"/>
<path fill-rule="evenodd" clip-rule="evenodd" d="M31.8338 18.5893C35.171 16.9909 36.8496 14.9595 36.8496 13.0134C36.8496 11.0673 35.171 9.03582 31.8338 7.43747C28.5636 5.87123 23.9828 4.87761 18.8742 4.87761C13.7656 4.87761 9.18471 5.87123 5.91453 7.43747C2.57732 9.03582 0.89877 11.0673 0.89877 13.0134C0.89877 14.9595 2.57732 16.9909 5.91453 18.5893C9.18471 20.1555 13.7656 21.1491 18.8742 21.1491C23.9828 21.1491 28.5636 20.1555 31.8338 18.5893ZM18.8742 22.0531C29.2981 22.0531 37.7483 18.0059 37.7483 13.0134C37.7483 8.02086 29.2981 3.97363 18.8742 3.97363C8.45026 3.97363 0 8.02086 0 13.0134C0 18.0059 8.45026 22.0531 18.8742 22.0531Z" fill="url(#paint5_linear_40_440)"/>
<path d="M37.7483 9.03973C37.7483 14.0322 29.2981 18.0795 18.8742 18.0795C8.45026 18.0795 0 14.0322 0 9.03973C0 4.04723 8.45026 0 18.8742 0C29.2981 0 37.7483 4.04723 37.7483 9.03973Z" fill="url(#paint6_linear_40_440)"/>
<path fill-rule="evenodd" clip-rule="evenodd" d="M31.8338 14.6156C35.171 13.0173 36.8496 10.9858 36.8496 9.03973C36.8496 7.09363 35.171 5.06219 31.8338 3.46384C28.5636 1.89759 23.9828 0.903973 18.8742 0.903973C13.7656 0.903973 9.18471 1.89759 5.91453 3.46384C2.57732 5.06219 0.89877 7.09363 0.89877 9.03973C0.89877 10.9858 2.57732 13.0173 5.91453 14.6156C9.18471 16.1819 13.7656 17.1755 18.8742 17.1755C23.9828 17.1755 28.5636 16.1819 31.8338 14.6156ZM18.8742 18.0795C29.2981 18.0795 37.7483 14.0322 37.7483 9.03973C37.7483 4.04723 29.2981 0 18.8742 0C8.45026 0 0 4.04723 0 9.03973C0 14.0322 8.45026 18.0795 18.8742 18.0795Z" fill="url(#paint7_linear_40_440)"/>
<path d="M18.9333 9.51624C18.9333 9.19339 18.969 8.8752 19.0404 8.56167C19.1118 8.24503 19.2252 7.94236 19.3804 7.65366C19.5387 7.36185 19.7281 7.10575 19.9485 6.88534C20.172 6.66494 20.4467 6.48954 20.7726 6.35916C21.0986 6.22568 21.4556 6.15894 21.8436 6.15894C22.2317 6.15894 22.5871 6.22568 22.91 6.35916C23.2359 6.48954 23.5106 6.66494 23.7342 6.88534C23.9577 7.10575 24.147 7.36185 24.3022 7.65366C24.4575 7.94236 24.5708 8.24503 24.6422 8.56167C24.7136 8.8752 24.7493 9.19339 24.7493 9.51624C24.7493 9.93532 24.6918 10.3078 24.577 10.6338C24.4652 10.9597 24.3162 11.2236 24.13 11.4254C23.9468 11.6241 23.7264 11.7886 23.4687 11.919C23.2111 12.0462 22.9503 12.1347 22.6865 12.1844C22.4226 12.2341 22.1416 12.2589 21.8436 12.2589C21.5456 12.2589 21.2647 12.2341 21.0008 12.1844C20.737 12.1347 20.4746 12.0462 20.2139 11.919C19.9562 11.7886 19.7343 11.6241 19.548 11.4254C19.3648 11.2236 19.2158 10.9597 19.101 10.6338C18.9892 10.3078 18.9333 9.93532 18.9333 9.51624ZM20.2698 9.64662C20.2698 10.3265 20.411 10.8449 20.6935 11.2019C20.9791 11.5589 21.3625 11.7374 21.8436 11.7374C22.3248 11.7374 22.7066 11.5589 22.9891 11.2019C23.2716 10.8449 23.4129 10.3265 23.4129 9.64662C23.4129 9.2679 23.3834 8.90935 23.3244 8.57098C23.2654 8.22951 23.1754 7.91442 23.0543 7.62572C22.9364 7.33702 22.7734 7.1073 22.5654 6.93656C22.3574 6.76583 22.1168 6.68046 21.8436 6.68046C21.5705 6.68046 21.3299 6.76583 21.1219 6.93656C20.9139 7.1073 20.7494 7.33702 20.6283 7.62572C20.5072 7.91442 20.4172 8.22951 20.3582 8.57098C20.2992 8.90935 20.2698 9.2679 20.2698 9.64662Z" fill="url(#paint8_linear_40_440)"/>
<path d="M13.1128 12.1654V6.25171H16.8799V6.82445H14.3561V11.5927H15.5947C15.9734 11.5927 16.2745 11.498 16.498 11.3086C16.7215 11.1193 16.8333 10.8321 16.8333 10.4472C16.8333 10.143 16.7247 9.8853 16.5073 9.6742C16.29 9.46001 15.9858 9.35291 15.5947 9.35291H14.831V8.78016H15.6878C16.4453 8.78016 17.0475 8.93383 17.4945 9.24115C17.9446 9.54848 18.1697 9.96135 18.1697 10.4798C18.1697 10.6784 18.1371 10.8616 18.0719 11.0292C18.0098 11.1938 17.926 11.3335 17.8205 11.4483C17.718 11.5632 17.5939 11.6641 17.448 11.751C17.3052 11.8379 17.1593 11.9078 17.0102 11.9605C16.8612 12.0102 16.7029 12.0521 16.5353 12.0862C16.3677 12.1173 16.2171 12.139 16.0836 12.1514C15.9501 12.1608 15.8182 12.1654 15.6878 12.1654H13.1128Z" fill="url(#paint9_linear_40_440)"/>
<defs>
<linearGradient id="paint0_linear_40_440" x1="26.4238" y1="18.8743" x2="4.17219" y2="11.2253" gradientUnits="userSpaceOnUse">
<stop stop-color="#FFCC00"/>
<stop offset="0.8" stop-color="#7C6300"/>
</linearGradient>
<linearGradient id="paint1_linear_40_440" x1="0" y1="21.0597" x2="37.7483" y2="21.0597" gradientUnits="userSpaceOnUse">
<stop offset="0.2"/>
<stop offset="1" stop-color="#3D3000"/>
</linearGradient>
<linearGradient id="paint2_linear_40_440" x1="26.4238" y1="14.9007" x2="4.17219" y2="7.25165" gradientUnits="userSpaceOnUse">
<stop stop-color="#FFCC00"/>
<stop offset="0.8" stop-color="#7C6300"/>
</linearGradient>
<linearGradient id="paint3_linear_40_440" x1="0" y1="17.0861" x2="37.7483" y2="17.0861" gradientUnits="userSpaceOnUse">
<stop offset="0.2"/>
<stop offset="1" stop-color="#3D3000"/>
</linearGradient>
<linearGradient id="paint4_linear_40_440" x1="26.4238" y1="10.9273" x2="4.17219" y2="3.27827" gradientUnits="userSpaceOnUse">
<stop stop-color="#FFCC00"/>
<stop offset="0.8" stop-color="#7C6300"/>
</linearGradient>
<linearGradient id="paint5_linear_40_440" x1="0" y1="13.1127" x2="37.7483" y2="13.1127" gradientUnits="userSpaceOnUse">
<stop offset="0.2"/>
<stop offset="1" stop-color="#3D3000"/>
</linearGradient>
<linearGradient id="paint6_linear_40_440" x1="26.4238" y1="6.95364" x2="4.17219" y2="-0.695367" gradientUnits="userSpaceOnUse">
<stop stop-color="#FFCC00"/>
<stop offset="0.8" stop-color="#7C6300"/>
</linearGradient>
<linearGradient id="paint7_linear_40_440" x1="0" y1="9.13907" x2="37.7483" y2="9.13907" gradientUnits="userSpaceOnUse">
<stop offset="0.2"/>
<stop offset="1" stop-color="#3D3000"/>
</linearGradient>
<linearGradient id="paint8_linear_40_440" x1="10.2444" y1="6.00682" x2="31.602" y2="13.6558" gradientUnits="userSpaceOnUse">
<stop/>
<stop offset="1" stop-color="#6A5500"/>
</linearGradient>
<linearGradient id="paint9_linear_40_440" x1="10.2444" y1="6.00647" x2="31.602" y2="13.6555" gradientUnits="userSpaceOnUse">
<stop/>
<stop offset="1" stop-color="#6A5500"/>
</linearGradient>
</defs>
</svg>
