<svg xmlns="http://www.w3.org/2000/svg" style="display: none;">
	<symbol id="logo" viewBox="0 0 235 52" fill="none">
		<path fill-rule="evenodd" clip-rule="evenodd" d="M11.744 5.23798C11.933 5.06506 12.221 5.05908 12.417 5.22399L42.4042 30.4461C42.5864 30.5993 42.6385 30.858 42.5298 31.0698C42.4212 31.2815 42.1806 31.39 41.95 31.3314L26.9315 27.5144C26.8129 27.4843 26.709 27.4125 26.6389 27.3123L11.6702 5.90711C11.5234 5.69716 11.555 5.4109 11.744 5.23798ZM14.7335 8.50623L27.3668 26.5718L40.0421 29.7933L14.7335 8.50623Z" fill="currentColor"/>
		<path fill-rule="evenodd" clip-rule="evenodd" d="M6.43483 27.0247C6.50722 26.7798 6.74953 26.6261 7.00198 26.6649L41.355 31.9539C41.5899 31.99 41.7687 32.1835 41.7863 32.4206C41.8039 32.6576 41.6556 32.8754 41.4286 32.9458L28.0816 37.0871C27.9628 37.124 27.8347 37.1162 27.7213 37.0653L6.71527 27.635C6.48225 27.5304 6.36244 27.2697 6.43483 27.0247ZM10.5718 28.2474L27.9633 36.055L39.0137 32.6263L10.5718 28.2474Z" fill="currentColor"/>
		<path fill-rule="evenodd" clip-rule="evenodd" d="M41.8774 33.9974C42.0137 34.2031 41.9834 34.4769 41.8054 34.6477L33.1735 42.9304C33.0868 43.0136 32.9735 43.0635 32.8535 43.0714L20.3048 43.8947C20.0568 43.911 19.8332 43.7463 19.7751 43.5046C19.7171 43.263 19.8415 43.0146 20.0698 42.9165L41.2504 33.8105C41.4771 33.7131 41.741 33.7918 41.8774 33.9974ZM23.2005 42.6817L32.601 42.0649L39.0673 35.8603L23.2005 42.6817Z" fill="currentColor"/>
		<path fill-rule="evenodd" clip-rule="evenodd" d="M223.256 5.23798C223.067 5.06506 222.779 5.05908 222.583 5.22399L192.596 30.4461C192.414 30.5993 192.362 30.858 192.47 31.0698C192.579 31.2815 192.819 31.39 193.05 31.3314L208.069 27.5144C208.187 27.4843 208.291 27.4125 208.361 27.3123L223.33 5.90711C223.477 5.69716 223.445 5.4109 223.256 5.23798ZM220.267 8.50623L207.633 26.5718L194.958 29.7933L220.267 8.50623Z" fill="currentColor"/>
		<path fill-rule="evenodd" clip-rule="evenodd" d="M228.565 27.0247C228.493 26.7798 228.25 26.6261 227.998 26.6649L193.645 31.9539C193.41 31.99 193.231 32.1835 193.214 32.4206C193.196 32.6576 193.344 32.8754 193.571 32.9458L206.918 37.0871C207.037 37.124 207.165 37.1162 207.279 37.0653L228.285 27.635C228.518 27.5304 228.638 27.2697 228.565 27.0247ZM224.428 28.2474L207.037 36.055L195.986 32.6263L224.428 28.2474Z" fill="currentColor"/>
		<path fill-rule="evenodd" clip-rule="evenodd" d="M193.123 33.9974C192.986 34.2031 193.017 34.4769 193.195 34.6477L201.827 42.9304C201.913 43.0136 202.027 43.0635 202.146 43.0714L214.695 43.8947C214.943 43.911 215.167 43.7463 215.225 43.5046C215.283 43.263 215.159 43.0146 214.93 42.9165L193.75 33.8105C193.523 33.7131 193.259 33.7918 193.123 33.9974ZM211.799 42.6817L202.399 42.0649L195.933 35.8603L211.799 42.6817Z" fill="currentColor"/>
		<path d="M39.9531 38.1094C39.9531 35.9635 40.3854 33.75 41.25 31.4688C42.125 29.1875 43.401 26.75 45.0781 24.1562H49.5625L52.7656 39.8438L57.0781 24.1562H61.2344L64.125 44H59.9531L57.7188 29.1875L53.5625 44H49.5625L45.875 26.4062C44.7083 29.3125 44.125 32.6042 44.125 36.2812C44.125 38.7604 44.5521 41.3333 45.4062 44H40.9531C40.2865 42 39.9531 40.0365 39.9531 38.1094ZM66.6875 44V24.1562H70.8594V42.0781H79.5V44H66.6875ZM81.7188 44V24.1562H91.3281C93.6094 24.1562 95.3802 24.5677 96.6406 25.3906C97.901 26.2031 98.5312 27.3698 98.5312 28.8906C98.5312 31.5885 97.0156 33.0833 93.9844 33.375C95.5677 33.4896 96.8542 33.9688 97.8438 34.8125C98.8333 35.6562 99.3281 36.8333 99.3281 38.3438C99.3281 39.2708 99.1458 40.0885 98.7812 40.7969C98.4167 41.4948 97.9583 42.0417 97.4062 42.4375C96.8646 42.8333 96.2135 43.1562 95.4531 43.4062C94.7031 43.6458 94 43.8073 93.3438 43.8906C92.6979 43.9635 92.026 44 91.3281 44H81.7188ZM85.8906 42.0781H90.6875C91.9583 42.0781 92.9688 41.7604 93.7188 41.125C94.4688 40.4896 94.8438 39.526 94.8438 38.2344C94.8438 37.2135 94.4792 36.349 93.75 35.6406C93.0208 34.9219 92 34.5625 90.6875 34.5625H87.4844V32.6406H91C93.2396 32.6406 94.3594 31.5625 94.3594 29.4062C94.3594 27.1875 93.2396 26.0781 91 26.0781H85.8906V42.0781ZM102.188 44V24.1562H111.797C114.078 24.1562 115.849 24.5677 117.109 25.3906C118.37 26.2031 119 27.3698 119 28.8906C119 31.5885 117.484 33.0833 114.453 33.375C116.036 33.4896 117.323 33.9688 118.312 34.8125C119.302 35.6562 119.797 36.8333 119.797 38.3438C119.797 39.2708 119.615 40.0885 119.25 40.7969C118.885 41.4948 118.427 42.0417 117.875 42.4375C117.333 42.8333 116.682 43.1562 115.922 43.4062C115.172 43.6458 114.469 43.8073 113.812 43.8906C113.167 43.9635 112.495 44 111.797 44H102.188ZM106.359 42.0781H111.156C112.427 42.0781 113.438 41.7604 114.188 41.125C114.938 40.4896 115.312 39.526 115.312 38.2344C115.312 37.2135 114.948 36.349 114.219 35.6406C113.49 34.9219 112.469 34.5625 111.156 34.5625H107.953V32.6406H111.469C113.708 32.6406 114.828 31.5625 114.828 29.4062C114.828 27.1875 113.708 26.0781 111.469 26.0781H106.359V42.0781ZM129.062 44V24.1562H133.234V44H129.062ZM136.438 44V24.1562H141.25L150.688 41.9219C151.323 40.099 151.641 37.8281 151.641 35.1094C151.641 33.0365 151.37 31.0469 150.828 29.1406C150.286 27.2344 149.599 25.5729 148.766 24.1562H153.25C154.844 27.1667 155.641 29.8021 155.641 32.0625C155.641 33.2708 155.516 34.474 155.266 35.6719C155.016 36.8698 154.708 37.9115 154.344 38.7969C153.99 39.6823 153.63 40.4844 153.266 41.2031C152.901 41.9219 152.594 42.526 152.344 43.0156C152.094 43.5052 151.969 43.8333 151.969 44H149.25L140.609 27.8438V44H136.438ZM158.531 44V24.1562H173.094V26.0781H162.703V32.6406H170.375V34.0781H162.703V44H158.531ZM175.031 35.1094C175.031 34.026 175.151 32.9583 175.391 31.9062C175.63 30.8438 176.01 29.8281 176.531 28.8594C177.062 27.8802 177.698 27.0208 178.438 26.2812C179.188 25.5417 180.109 24.9531 181.203 24.5156C182.297 24.0677 183.495 23.8438 184.797 23.8438C186.099 23.8438 187.292 24.0677 188.375 24.5156C189.469 24.9531 190.391 25.5417 191.141 26.2812C191.891 27.0208 192.526 27.8802 193.047 28.8594C193.568 29.8281 193.948 30.8438 194.188 31.9062C194.427 32.9583 194.547 34.026 194.547 35.1094C194.547 36.5156 194.354 37.7656 193.969 38.8594C193.594 39.9531 193.094 40.8385 192.469 41.5156C191.854 42.1823 191.115 42.7344 190.25 43.1719C189.385 43.599 188.51 43.8958 187.625 44.0625C186.74 44.2292 185.797 44.3125 184.797 44.3125C183.797 44.3125 182.854 44.2292 181.969 44.0625C181.083 43.8958 180.203 43.599 179.328 43.1719C178.464 42.7344 177.719 42.1823 177.094 41.5156C176.479 40.8385 175.979 39.9531 175.594 38.8594C175.219 37.7656 175.031 36.5156 175.031 35.1094ZM179.516 35.5469C179.516 37.8281 179.99 39.5677 180.938 40.7656C181.896 41.9635 183.182 42.5625 184.797 42.5625C186.411 42.5625 187.693 41.9635 188.641 40.7656C189.589 39.5677 190.062 37.8281 190.062 35.5469C190.062 34.276 189.964 33.0729 189.766 31.9375C189.568 30.7917 189.266 29.7344 188.859 28.7656C188.464 27.7969 187.917 27.026 187.219 26.4531C186.521 25.8802 185.714 25.5938 184.797 25.5938C183.88 25.5938 183.073 25.8802 182.375 26.4531C181.677 27.026 181.125 27.7969 180.719 28.7656C180.312 29.7344 180.01 30.7917 179.812 31.9375C179.615 33.0729 179.516 34.276 179.516 35.5469Z" fill="currentColor"/>
	</symbol>
</svg>